<?xml version="1.0" encoding="utf-8"?>
<!-- Generator: Adobe Illustrator 19.0.0, SVG Export Plug-In . SVG Version: 6.00 Build 0)  -->
<svg version="1.1" id="Layer_1" xmlns="http://www.w3.org/2000/svg" xmlns:xlink="http://www.w3.org/1999/xlink" x="0px" y="0px"
	 viewBox="0 0 150 60" style="enable-background:new 0 0 150 60;" xml:space="preserve">
<style type="text/css">
	.st0{fill:#ffffff;}
</style>
<g id="oBMThh.tif">
	<g id="XMLID_3_">
		<path id="XMLID_1_" class="st0" d="M79.7,0.2c0.6,0,1.1,0,1.7,0c0.1,0,0.2,0,0.3,0c1.7,0.1,3.4,0.2,5.1,0.3c0.2,0,0.4,0.1,0.7,0.1
			c-0.1,3.2-0.2,6.3-0.2,9.5c-0.1,0-0.2,0-0.3,0c-2,0-4,0-6.1,0c-0.5,0-1,0-1.5,0.1c-1.5,0.2-2.3,1-2.5,2.5
			c-0.1,0.5-0.1,1.1-0.1,1.6c0,2.4,0,4.8,0,7.1c0,0.1,0,0.2,0,0.3c3.6,0,7.2,0,10.9,0c-0.2,3.4-0.3,6.8-0.5,10.2
			c-3.5,0-6.9,0-10.4,0c0,9.3,0,18.6,0,27.8c-3.6,0-7.2,0-10.8,0c0-9.3,0-18.6,0-27.9c-2.5,0-4.9,0-7.4,0c0-3.4,0-6.8,0-10.1
			c0.1,0,0.2,0,0.3,0c2.3,0,4.6,0,6.8,0c0.1,0,0.2,0,0.3,0c0-0.1,0-0.2,0-0.3c0-2.7,0-5.4,0-8.1c0-1,0.1-2,0.3-3
			c0.7-3.4,2.5-6.1,5.5-7.9c1.9-1.2,4.1-1.8,6.3-2C78.6,0.3,79.1,0.2,79.7,0.2z"/>
	</g>
</g>
</svg>
