<?xml version="1.0" encoding="UTF-8" standalone="no"?>
<svg width="404px" height="47px" viewBox="0 0 404 47" version="1.1" xmlns="http://www.w3.org/2000/svg" xmlns:xlink="http://www.w3.org/1999/xlink" xmlns:sketch="http://www.bohemiancoding.com/sketch/ns">
    <!-- Generator: Sketch 3.4.2 (15855) - http://www.bohemiancoding.com/sketch -->
    <title>Gripbell</title>
    <desc>Created with Sketch.</desc>
    <defs></defs>
    <g id="Page-1" stroke="none" stroke-width="1" fill="none" fill-rule="evenodd" sketch:type="MSPage">
        <g id="Gripbell" sketch:type="MSLayerGroup" transform="translate(12.000000, 0.000000)">
            <path d="M222.6377,23.4961 C222.6707,20.5611 222.4057,17.8251 222.1077,16.1181 C221.4677,12.4361 217.8557,9.8961 214.0747,10.4761 C212.8847,10.6591 211.7477,11.2051 210.6007,11.6241 C210.0267,11.8321 209.3517,12.0001 208.9537,12.4041 C207.6447,13.7371 206.9127,15.3211 207.4677,17.2241 C208.0407,19.1891 208.3457,21.1971 208.3787,23.2301 C208.4137,25.3551 208.1497,27.4581 207.5547,29.5121 C207.3357,30.2671 207.1297,31.0031 207.3257,31.8071 C207.6957,33.3411 208.4367,34.5771 209.9887,35.2201 C210.7687,35.5431 211.5337,35.8841 212.3117,36.2091 C220.5527,39.6411 222.5507,30.9271 222.6377,23.4961 M155.0627,36.8591 C156.0217,36.6081 156.9937,36.3921 157.9377,36.0951 C158.5617,35.8991 159.1347,35.5431 159.7547,35.3271 C161.2807,34.7961 162.0407,33.6341 162.5257,32.2271 C162.7857,31.4761 162.8467,30.7551 162.5767,29.9501 C161.8837,27.8811 161.6027,25.7231 161.6087,23.5561 C161.6167,21.3901 161.9197,19.2471 162.5547,17.1551 C163.1527,15.1911 161.9267,12.6841 160.0347,11.8801 C159.3647,11.5951 158.6997,11.3061 158.0327,11.0191 C153.8217,9.2101 149.0057,11.4201 147.9997,15.7291 C147.5547,17.6331 147.3267,19.6001 147.1877,21.5541 C146.9647,24.6381 147.2567,27.7011 147.8247,30.7481 C148.4757,34.2401 151.3947,36.6991 155.0627,36.8591 M184.9777,26.3211 C181.8007,26.3211 178.6247,26.3781 175.4507,26.2981 C173.4577,26.2471 171.8727,26.8751 170.5337,28.3101 C169.4807,29.4411 169.1637,31.6371 170.0447,32.9071 C173.9207,38.4971 179.2977,41.2661 186.2087,40.8501 C192.1987,40.4911 196.7827,37.6581 200.0497,32.7561 C200.1727,32.5721 200.2737,32.3651 200.3247,32.1531 C201.1397,28.7611 198.1687,26.3671 195.3907,26.3291 C191.9207,26.2841 188.4487,26.3211 184.9777,26.3211 M184.9167,20.7771 C188.4097,20.7771 191.9037,20.7821 195.3987,20.7731 C197.3447,20.7691 199.4767,19.4081 200.0957,17.7291 C200.4787,16.6961 200.8257,15.5461 200.1817,14.5581 C196.2917,8.5891 190.6637,5.7391 183.4807,6.2381 C178.0207,6.6201 173.6647,9.2051 170.4537,13.5731 C170.1247,14.0201 169.7597,14.5071 169.6407,15.0261 C168.8547,18.4951 172.1737,20.7841 174.5697,20.7791 C178.0177,20.7711 181.4677,20.7771 184.9167,20.7771 M155.0457,4.8411 C156.9977,4.8611 158.8277,5.3471 160.6057,6.1031 C161.8337,6.6271 163.0547,7.2441 164.3457,7.5371 C166.3567,7.9951 168.2207,7.4801 169.8207,6.1451 C173.4677,3.1051 177.6707,1.2841 182.4327,0.8051 C189.1227,0.1311 195.0347,1.9611 200.2217,6.1711 C202.2597,7.8251 204.5757,8.1901 207.0657,7.1241 C208.9227,6.3291 210.7337,5.4301 212.7577,5.0531 C219.5007,3.8001 226.3917,8.4201 227.6337,15.0431 C228.1157,17.6171 228.4257,20.2021 228.4737,22.8261 C228.5327,26.2121 228.2417,29.5561 227.4317,32.8421 C226.1437,38.0651 221.1577,41.9621 215.6737,42.2021 C213.4517,42.3011 211.3827,41.8491 209.3797,40.9711 C208.5257,40.5971 207.6757,40.2121 206.8117,39.8681 C204.4547,38.9341 202.2247,39.3351 200.3417,40.8591 C196.2497,44.1821 191.6097,46.1381 186.3237,46.4111 C179.9887,46.7401 174.3707,44.8091 169.5647,40.7291 C168.7807,40.0631 167.8667,39.7701 166.9067,39.5981 C165.5487,39.3511 164.2197,39.3651 162.9007,39.9721 C160.9467,40.8741 158.9947,41.8121 156.8067,42.1051 C149.9727,43.0191 143.6807,38.6091 142.3467,31.9601 C141.6227,28.3461 141.3387,24.7011 141.5757,21.0281 C141.7507,18.3341 141.9307,15.6011 142.9607,13.0741 C144.8887,8.3381 148.4827,5.5941 153.6867,4.9581 C154.1387,4.9021 154.5927,4.8801 155.0457,4.8411" id="Fill-1" fill="#ED1C24" sketch:type="MSShapeGroup"></path>
            <path d="M38.8877,22.5962 C38.8877,27.3582 37.1397,31.2062 33.6467,34.1382 C30.1527,37.0702 25.5207,38.5342 19.7497,38.5342 C14.4737,38.5342 10.0697,37.2282 6.5347,34.6122 C2.5307,31.6442 0.5287,27.7752 0.5287,23.0012 C0.5287,18.3092 2.5587,14.4522 6.6177,11.4312 C10.1807,8.7892 14.6957,7.4672 20.1637,7.4672 C26.7647,7.4672 32.1767,9.8272 36.4017,14.5472 L31.7627,16.8122 C28.6417,13.5482 24.6377,11.9182 19.7497,11.9182 C15.9387,11.9182 12.7487,12.8342 10.1807,14.6672 C7.1977,16.7982 5.7067,19.5772 5.7067,23.0012 C5.7067,26.2922 6.9907,28.9622 9.5597,31.0112 C12.1267,33.0612 15.5237,34.0862 19.7497,34.0862 C26.3777,34.0862 30.6857,31.5642 32.6737,26.5212 L18.7147,26.5212 L18.7147,22.1522 L38.8877,22.1522 L38.8877,22.5962 Z" id="Fill-3" fill="#000000" sketch:type="MSShapeGroup"></path>
            <path d="M67.0981,23.0005 C70.9361,23.0005 72.8551,21.4915 72.8551,18.4705 C72.8551,15.2335 70.7851,13.6155 66.6421,13.6155 L49.1611,13.6155 L49.1611,23.0005 L67.0981,23.0005 Z M78.2001,38.5345 L72.4171,38.5345 L64.3011,27.3695 L49.1611,27.3695 L49.1611,38.5345 L44.1901,38.5345 L44.1901,9.2475 L67.8441,9.2475 C70.9911,9.2475 73.4631,10.0755 75.2591,11.7345 C77.0531,13.3935 77.9521,15.6385 77.9521,18.4695 C77.9521,20.9515 77.2191,22.9475 75.7561,24.4565 C74.4031,25.8605 72.5381,26.7495 70.1631,27.1265 L78.2001,38.5345 Z" id="Fill-5" fill="#000000" sketch:type="MSShapeGroup"></path>
            <path d="M90.917,38.535 L85.946,38.535 L85.946,9.247 L90.917,9.247 L90.917,38.535 Z" id="Fill-7" fill="#000000" sketch:type="MSShapeGroup"></path>
            <path d="M123.8491,23.0005 C127.6881,23.0005 129.6071,21.4915 129.6071,18.4705 C129.6071,15.2335 127.5771,13.6155 123.5181,13.6155 L105.9121,13.6155 L105.9121,23.0005 L123.8491,23.0005 Z M124.7201,9.2475 C127.7851,9.2475 130.2141,10.0755 132.0101,11.7345 C133.8051,13.3935 134.7021,15.6115 134.7021,18.3885 C134.7021,21.3015 133.7701,23.5265 131.9071,25.0635 C130.0421,26.6015 127.3281,27.3695 123.7661,27.3695 L105.9121,27.3695 L105.9121,38.5345 L100.9411,38.5345 L100.9411,9.2475 L124.7201,9.2475 Z" id="Fill-9" fill="#000000" sketch:type="MSShapeGroup"></path>
            <path d="M384.5088,37.0679 L384.5088,33.2269 L383.0748,33.2269 L383.0748,32.7139 L386.5248,32.7139 L386.5248,33.2269 L385.0858,33.2269 L385.0858,37.0679 L384.5088,37.0679 Z" id="Fill-10" fill="#000000" sketch:type="MSShapeGroup"></path>
            <path d="M387.0996,37.0679 L387.0996,32.7139 L387.9666,32.7139 L388.9966,35.7969 C389.0906,36.0849 389.1616,36.2989 389.2036,36.4419 C389.2536,36.2829 389.3316,36.0499 389.4346,35.7429 L390.4786,32.7139 L391.2516,32.7139 L391.2516,37.0679 L390.6976,37.0679 L390.6976,33.4229 L389.4336,37.0679 L388.9126,37.0679 L387.6556,33.3619 L387.6556,37.0679 L387.0996,37.0679 Z" id="Fill-11" fill="#000000" sketch:type="MSShapeGroup"></path>
            <path d="M261.5527,33.0239 C265.6677,33.0239 267.7267,31.6979 267.7267,29.0469 C267.7267,26.2059 265.9277,24.7849 262.3347,24.7849 L242.7057,24.7849 L242.7057,33.0239 L261.5527,33.0239 Z M261.9247,20.4439 C263.2947,20.4439 264.4417,20.0609 265.3607,19.2939 C266.2797,18.5269 266.7377,17.5899 266.7377,16.4859 C266.7377,15.3009 266.3267,14.3589 265.5057,13.6589 C264.6807,12.9579 263.5567,12.6089 262.1297,12.6089 L242.7057,12.6089 L242.7057,20.4439 L261.9247,20.4439 Z M267.6857,22.3749 C271.0867,23.4989 272.7867,25.9509 272.7867,29.7289 C272.7867,34.8189 269.0287,37.3649 261.5117,37.3649 L237.7687,37.3649 L237.7687,8.2679 L261.8427,8.2679 C264.8587,8.2679 267.2327,8.9919 268.9597,10.4389 C270.6897,11.8839 271.5517,13.8149 271.5517,16.2249 C271.5517,18.8769 270.2637,20.9279 267.6857,22.3749 L267.6857,22.3749 Z" id="Fill-12" fill="#000000" sketch:type="MSShapeGroup"></path>
            <path d="M311.5811,37.3647 L280.3881,37.3647 L280.3881,8.2677 L310.4301,8.2677 L310.4301,12.6087 L285.3261,12.6087 L285.3261,20.0837 L302.7741,20.0837 L302.7741,24.4237 L285.3261,24.4237 L285.3261,33.0237 L311.5811,33.0237 L311.5811,37.3647 Z" id="Fill-13" fill="#000000" sketch:type="MSShapeGroup"></path>
            <path d="M346.0967,37.3647 L318.1537,37.3647 L318.1537,8.2677 L323.0927,8.2677 L323.0927,33.0237 L346.0967,33.0237 L346.0967,37.3647 Z" id="Fill-14" fill="#000000" sketch:type="MSShapeGroup"></path>
            <path d="M379.8398,37.3647 L351.8978,37.3647 L351.8978,8.2677 L356.8368,8.2677 L356.8368,33.0237 L379.8398,33.0237 L379.8398,37.3647 Z" id="Fill-15" fill="#000000" sketch:type="MSShapeGroup"></path>
        </g>
    </g>
</svg>