<?xml version="1.0" encoding="utf-8"?>
<!-- Generator: Adobe Illustrator 19.0.0, SVG Export Plug-In . SVG Version: 6.00 Build 0)  -->
<svg version="1.1" id="Layer_1" xmlns="http://www.w3.org/2000/svg" xmlns:xlink="http://www.w3.org/1999/xlink" x="0px" y="0px"
	 viewBox="0 0 150 60" style="enable-background:new 0 0 150 60;" xml:space="preserve">
<style type="text/css">
	.st0{fill-rule:evenodd;clip-rule:evenodd;fill:#C6C6C6;}
</style>
<path id="XMLID_2_" class="st0" d="M96,0.3H46.2c-2.7,0-5,2.2-5,5v49.5c0,2.7,2.2,5,5,5H96c2.7,0,5-2.2,5-5V5.2
	C101,2.5,98.8,0.3,96,0.3z M82.5,8.4c0-0.7,0.6-1.2,1.2-1.2h8.9c0.7,0,1.2,0.6,1.2,1.2v8.9c0,0.7-0.6,1.2-1.2,1.2h-8.9
	c-0.7,0-1.2-0.6-1.2-1.2V8.4z M71.1,18.3c6.4,0,11.7,5.2,11.7,11.7c0,6.4-5.2,11.7-11.7,11.7S59.4,36.5,59.4,30
	C59.4,23.6,64.7,18.3,71.1,18.3z M94.1,52.1c0,0.7-0.6,1.2-1.2,1.2H49.1c-0.7,0-1.2-0.6-1.2-1.2V25.6h5.5c-0.4,1.5-0.7,3.1-0.7,4.8
	c0,10.1,8.2,18.3,18.3,18.3s18.3-8.2,18.3-18.3c0-1.7-0.3-3.3-0.7-4.8h5.5V52.1z"/>
</svg>
