<?xml version="1.0" encoding="utf-8"?>
<!-- Generator: Adobe Illustrator 19.0.0, SVG Export Plug-In . SVG Version: 6.00 Build 0)  -->
<svg version="1.1" id="Layer_1" xmlns="http://www.w3.org/2000/svg" xmlns:xlink="http://www.w3.org/1999/xlink" x="0px" y="0px"
	 viewBox="0 0 150 60" style="enable-background:new 0 0 150 60;" xml:space="preserve">
<style type="text/css">
	.st0{fill-rule:evenodd;clip-rule:evenodd;fill:#C6C6C6;}
</style>
<g id="Shape_1_copy_8">
	<g id="XMLID_19_">
		<path id="XMLID_20_" class="st0" d="M110.5,7.8l-7.7,2.2l6.3-8.3l-9.6,3.4c0,0-6.1-7.6-15.8-3.7c-9.7,3.9-11.6,13-10.1,17.5
			c0,0-16.8,0.1-31.3-15.6c0,0-5.3,10.3,4.6,19.8c0,0-1.6,0.2-6.3-1.2c0,0-0.6,10.3,11.7,14.4c0,0-4,0.8-6.4,0.6c0,0,3.1,9,13.9,10
			c0,0-6.6,6.6-21.9,6.7c0,0,23.9,15.6,49.3-3.1c16.6-12.3,17.2-30.4,16.4-35.4L110.5,7.8z"/>
	</g>
</g>
</svg>
