<?xml version="1.0" encoding="UTF-8" standalone="no"?>
<svg width="39px" height="30px" viewBox="0 0 39 30" version="1.1" xmlns="http://www.w3.org/2000/svg" xmlns:xlink="http://www.w3.org/1999/xlink" xmlns:sketch="http://www.bohemiancoding.com/sketch/ns">
    <!-- Generator: Sketch 3.4.2 (15855) - http://www.bohemiancoding.com/sketch -->
    <title>logo/visual-date</title>
    <desc>Created with Sketch.</desc>
    <defs></defs>
    <g id="Page-1" stroke="none" stroke-width="1" fill="none" fill-rule="evenodd" sketch:type="MSPage">
        <g id="logo/visual-date" sketch:type="MSArtboardGroup">
            <path d="M35.5145267,10.7094008 C35.5285632,9.4610269 35.4158455,8.29729574 35.2890912,7.57123978 C35.0168672,6.00513666 33.4805032,4.9247722 31.8722551,5.1714696 C31.3660886,5.24930688 30.8824658,5.4815427 30.3945894,5.65976031 C30.1504385,5.7482311 29.8633273,5.81968827 29.694038,5.99152577 C29.1372549,6.55850444 28.8258988,7.23224353 29.061968,8.0416662 C29.3056935,8.87745996 29.4354252,9.73154336 29.4494618,10.5962603 C29.464349,11.5001085 29.3520566,12.3945992 29.0989734,13.2682483 C29.0058218,13.5893802 28.9181997,13.9024307 29.0015683,14.2444043 C29.1589478,14.8968764 29.4741321,15.4225971 30.1342752,15.6960909 C30.4660482,15.8334758 30.7914409,15.9785169 31.1223631,16.1167525 C34.627672,17.5765205 35.4775212,13.8701048 35.5145267,10.7094008 M6.771504,16.3932237 C7.1794146,16.2864633 7.59285475,16.1945898 7.9943851,16.0682637 C8.25980347,15.984897 8.50352899,15.8334758 8.76724595,15.7416023 C9.41632997,15.5157466 9.73959593,15.0215011 9.94589066,14.4230473 C10.0564816,14.1036167 10.082428,13.7969463 9.96758351,13.4545473 C9.67281599,12.5745182 9.55329266,11.6566337 9.55584476,10.7349212 C9.55924756,9.81363404 9.68812859,8.9021297 9.95822581,8.01231771 C10.2125851,7.17694929 9.69110604,6.11062106 8.88634394,5.76864743 C8.60135948,5.64742544 8.31850176,5.52450208 8.03479335,5.4024294 C6.24364472,4.63298873 4.19515937,5.57299088 3.76725733,7.40578239 C3.5779766,8.21563039 3.48099681,9.05227484 3.42187317,9.88338986 C3.32702013,11.1951395 3.45122232,12.4979569 3.69282109,13.7939689 C3.9697239,15.2792574 5.2113204,16.3251693 6.771504,16.3932237 M19.4958477,11.9109872 C18.1445109,11.9109872 16.7935995,11.9352316 15.4435387,11.9012044 C14.5958163,11.8795121 13.9216366,12.1466258 13.352093,12.7569892 C12.9041995,13.2380491 12.7693636,14.1720965 13.1440969,14.7122787 C14.7927533,17.0899312 17.07986,18.2676986 20.0194535,18.090757 C22.5672996,17.9380598 24.5171038,16.7330707 25.9067221,14.6480523 C25.9590401,14.5697897 26.0020005,14.4817442 26.0236933,14.3915721 C26.3703535,12.9488177 25.1066388,11.9305529 23.9250167,11.91439 C22.4490524,11.8952497 20.9722373,11.9109872 19.4958477,11.9109872 M19.4699013,9.55290042 C20.9556487,9.55290042 22.4418214,9.55502712 23.9284195,9.55119906 C24.7561505,9.54949769 25.6629966,8.97060949 25.9262882,8.25646307 C26.0891972,7.8170865 26.2367936,7.32794511 25.9628683,6.90770886 C24.308257,4.36885238 21.9143875,3.15663242 18.8590988,3.36887725 C16.5366881,3.53135726 14.6838637,4.63086203 13.318065,6.48874862 C13.1781249,6.67887575 13.0228722,6.8860165 12.9722555,7.10676813 C12.6379305,8.58227377 14.0496669,9.5558778 15.0688054,9.5537511 C16.535412,9.55034837 18.0028694,9.55290042 19.4699013,9.55290042 M6.76427305,2.7746768 C7.59455615,2.7831836 8.37294655,2.98989901 9.12921876,3.3114563 C9.65154849,3.53433464 10.1709008,3.79676963 10.7200276,3.92139435 C11.5754063,4.11620022 12.3682586,3.89714995 13.0488185,3.3293206 C14.6000698,2.03628597 16.3878156,1.26174121 18.4133321,1.05800319 C21.2589232,0.771323805 23.7735921,1.54969662 25.9798823,3.34037944 C26.8467455,4.04389236 27.8318559,4.19914159 28.8909773,3.74572879 C29.6808522,3.40758322 30.4511609,3.02520225 31.3120692,2.86484895 C34.1802039,2.3318975 37.1112904,4.29696986 37.639575,7.11399892 C37.8445937,8.20882495 37.9764522,9.30832972 37.996869,10.4244228 C38.0219646,11.8646252 37.8981878,13.2869632 37.5536543,14.6846316 C37.0058036,16.9061842 34.8850088,18.5637355 32.5523896,18.6658172 C31.6072621,18.7079258 30.727213,18.515672 29.8752371,18.1422232 C29.5119882,17.9831459 29.1504408,17.8193899 28.7829384,17.6730728 C27.7803886,17.2758049 26.8318582,17.4463664 26.0309243,18.0945851 C24.2903923,19.507991 22.3167685,20.3399567 20.0683687,20.4560746 C17.3737768,20.5960116 14.9841608,19.7746794 12.9399289,18.0392908 C12.6064546,17.7560142 12.2176847,17.6313895 11.8093488,17.5582309 C11.2317235,17.4531718 10.6664335,17.4591266 10.1053969,17.7173082 C9.27426309,18.1009652 8.44397999,18.4999344 7.51331431,18.6245591 C4.60647277,19.0133202 1.9301709,17.1375693 1.36275407,14.3094814 C1.05480071,12.7723014 0.934001328,11.2219359 1.03480927,9.65966084 C1.10924551,8.51379397 1.1858085,7.35133883 1.62391894,6.2765038 C2.44399364,4.26209196 3.97270135,3.09495807 6.18622248,2.82444161 C6.37848065,2.80062256 6.57158953,2.79126507 6.76427305,2.7746768" id="Fill-1" fill="#CA0209" sketch:type="MSShapeGroup"></path>
            <path d="M10.19,24.828 C10.19,24.234 9.956,23.682 9.512,23.25 C9.086,22.83 8.528,22.608 7.91,22.608 C7.304,22.608 6.74,22.836 6.314,23.25 C5.87,23.682 5.63,24.234 5.63,24.828 C5.63,25.428 5.864,25.98 6.308,26.412 C6.734,26.832 7.304,27.06 7.91,27.06 C8.528,27.06 9.08,26.832 9.512,26.412 C9.956,25.98 10.19,25.428 10.19,24.828 L10.19,24.828 Z M9.464,24.828 C9.464,25.746 8.816,26.406 7.91,26.406 C7.004,26.406 6.356,25.746 6.356,24.828 C6.356,23.904 6.998,23.25 7.91,23.25 C8.822,23.25 9.464,23.904 9.464,24.828 L9.464,24.828 Z M12.164,27 L12.164,22.656 L11.45,22.656 C11.246,22.836 11.012,22.968 10.748,23.052 L10.748,23.676 L11.444,23.376 L11.444,27 L12.164,27 Z M14.108,27 L14.108,26.346 L13.178,26.346 L13.178,27 L14.108,27 Z M19.784,24.828 C19.784,24.234 19.55,23.682 19.106,23.25 C18.68,22.83 18.122,22.608 17.504,22.608 C16.898,22.608 16.334,22.836 15.908,23.25 C15.464,23.682 15.224,24.234 15.224,24.828 C15.224,25.428 15.458,25.98 15.902,26.412 C16.328,26.832 16.898,27.06 17.504,27.06 C18.122,27.06 18.674,26.832 19.106,26.412 C19.55,25.98 19.784,25.428 19.784,24.828 L19.784,24.828 Z M19.058,24.828 C19.058,25.746 18.41,26.406 17.504,26.406 C16.598,26.406 15.95,25.746 15.95,24.828 C15.95,23.904 16.592,23.25 17.504,23.25 C18.416,23.25 19.058,23.904 19.058,24.828 L19.058,24.828 Z M24.704,27 L24.704,26.346 L21.146,26.346 C21.344,25.92 21.68,25.674 22.196,25.494 C22.604,25.356 23.03,25.284 23.45,25.164 C24.224,24.948 24.596,24.588 24.596,23.982 C24.596,23.19 23.81,22.602 22.658,22.602 C21.86,22.602 21.164,22.854 20.492,23.376 L20.948,23.856 C21.47,23.442 22.01,23.25 22.646,23.25 C23.396,23.25 23.816,23.532 23.816,23.934 C23.816,24.138 23.714,24.282 23.504,24.402 C23.162,24.588 22.664,24.672 22.1,24.846 C20.918,25.218 20.342,25.902 20.294,27 L24.704,27 Z M26.666,27 L26.666,26.346 L25.736,26.346 L25.736,27 L26.666,27 Z M28.628,27 L28.628,22.656 L27.914,22.656 C27.71,22.836 27.476,22.968 27.212,23.052 L27.212,23.676 L27.908,23.376 L27.908,27 L28.628,27 Z M30.602,25.02 C30.584,24.924 30.572,24.834 30.572,24.75 C30.572,24.258 30.848,23.79 31.346,23.49 C31.622,23.322 31.94,23.244 32.294,23.244 C32.876,23.244 33.356,23.442 33.674,23.802 L34.202,23.382 C33.746,22.872 33.074,22.59 32.294,22.59 C31.442,22.59 30.716,22.944 30.266,23.55 C29.996,23.916 29.852,24.36 29.852,24.852 C29.852,26.226 30.764,27.072 32.348,27.072 C33.65,27.072 34.388,26.508 34.388,25.65 C34.388,24.858 33.578,24.27 32.372,24.27 C31.754,24.27 31.178,24.516 30.602,25.02 L30.602,25.02 Z M30.764,25.68 C31.142,25.164 31.718,24.876 32.348,24.876 C33.134,24.876 33.65,25.224 33.65,25.668 C33.65,26.088 33.152,26.406 32.33,26.406 C31.55,26.406 31.022,26.16 30.764,25.68 L30.764,25.68 Z" id="01.02.16" fill="#9B9B9B" sketch:type="MSShapeGroup"></path>
        </g>
    </g>
</svg>