<?xml version="1.0" encoding="UTF-8" standalone="no"?>
<svg width="24px" height="14px" viewBox="0 0 24 14" version="1.1" xmlns="http://www.w3.org/2000/svg" xmlns:xlink="http://www.w3.org/1999/xlink" xmlns:sketch="http://www.bohemiancoding.com/sketch/ns">
    <!-- Generator: Sketch 3.4.2 (15855) - http://www.bohemiancoding.com/sketch -->
    <title>logo/visual</title>
    <desc>Created with Sketch.</desc>
    <defs></defs>
    <g id="Page-1" stroke="none" stroke-width="1" fill="none" fill-rule="evenodd" sketch:type="MSPage">
        <g id="logo/visual" sketch:type="MSArtboardGroup" fill="#CA0209">
            <path d="M21.7175753,6.8282644 C21.7260009,6.0789027 21.6583413,5.38034951 21.5822562,4.94451972 C21.4188519,4.00443461 20.4966392,3.35592397 19.5312775,3.50400908 C19.2274477,3.55073248 18.9371498,3.69013674 18.6442987,3.79711546 C18.4977456,3.85022185 18.3254051,3.89311546 18.2237881,3.9962644 C17.8895753,4.33660482 17.7026817,4.74103036 17.8443839,5.2269027 C17.9906817,5.72860482 18.0685541,6.24128568 18.0769796,6.76034951 C18.0859158,7.3029027 18.0185115,7.83983887 17.8665966,8.3642644 C17.8106817,8.55703036 17.758086,8.74494525 17.8081285,8.95022185 C17.9025966,9.34188142 18.0917881,9.65745589 18.4880434,9.8216261 C18.6871924,9.90409419 18.8825115,9.99115802 19.0811498,10.0741367 C21.1852349,10.9503921 21.6953626,8.72554099 21.7175753,6.8282644 M4.46438386,10.2400942 C4.70923492,10.1760091 4.95740513,10.1208601 5.19842641,10.0450304 C5.35774556,9.9949878 5.50404343,9.90409419 5.6623413,9.84894525 C6.05195832,9.71337078 6.24600088,9.41668993 6.36983066,9.05745589 C6.43621364,8.86571121 6.45178811,8.6816261 6.38285194,8.47609419 C6.20591577,7.94783887 6.13417109,7.39686014 6.135703,6.84358355 C6.13774556,6.29056227 6.21510726,5.74341334 6.37723492,5.20928568 C6.52991577,4.70783887 6.21689449,4.06775376 5.73383066,3.86247717 C5.56276683,3.78971121 5.3929796,3.71592397 5.22268173,3.64264738 C4.14753279,3.18077504 2.91791577,3.74503036 2.66106471,4.84520057 C2.54744769,5.33132823 2.48923492,5.83354099 2.45374556,6.33243461 C2.39680939,7.11983887 2.47136258,7.90188142 2.61638386,8.67983887 C2.78259662,9.57141334 3.52787322,10.1992431 4.46438386,10.2400942 M12.1022562,7.54954099 C11.2911073,7.54954099 10.4802136,7.56409419 9.66983066,7.54366865 C9.1609796,7.53064738 8.75629875,7.6909878 8.41442641,8.05737078 C8.14557535,8.34613674 8.06463918,8.90681759 8.28957535,9.23107291 C9.27919237,10.658307 10.6520434,11.3652857 12.4165541,11.2590729 C13.9459158,11.1674133 15.1162987,10.4440942 15.9504264,9.19251972 C15.9818307,9.14554099 16.0076179,9.09268993 16.0206392,9.03856227 C16.2287243,8.17251972 15.4701711,7.56128568 14.7608945,7.55158355 C13.874937,7.54009419 12.988469,7.54954099 12.1022562,7.54954099 M12.0866817,6.13405163 C12.9785115,6.13405163 13.8705966,6.13532823 14.762937,6.13303036 C15.2597881,6.13200908 15.8041285,5.78451972 15.9621711,5.35583887 C16.0599583,5.09209419 16.1485541,4.79847717 15.9841285,4.54622185 C14.990937,3.02222185 13.5540009,2.29456227 11.7200434,2.42196653 C10.3260009,2.51949844 9.21383066,3.17949844 8.39400088,4.29473248 C8.31000088,4.40886014 8.21680939,4.53320057 8.18642641,4.66571121 C7.98574556,5.55141334 8.83314981,6.13583887 9.44489449,6.13456227 C10.3252349,6.13251972 11.206086,6.13405163 12.0866817,6.13405163 M4.46004343,2.06528568 C4.95842641,2.07039206 5.42566045,2.19447717 5.8796179,2.38749844 C6.19314981,2.52128568 6.50489449,2.67881759 6.83451152,2.7536261 C7.34795832,2.87056227 7.82387322,2.73907291 8.23238386,2.39822185 C9.16353279,1.62205163 10.2366392,1.15711546 11.452469,1.03481759 C13.1605541,0.862732484 14.6700009,1.32996653 15.9943413,2.40486014 C16.5146817,2.82715802 17.1060009,2.92034951 17.7417456,2.64817929 C18.2158732,2.44520057 18.6782562,2.21566865 19.1950222,2.11941334 C20.9166392,1.79949844 22.6760434,2.97907291 22.9931498,4.67005163 C23.1162136,5.32724312 23.1953626,5.98724312 23.2076179,6.65720057 C23.2226817,7.52171121 23.1483839,8.37549844 22.9415753,9.21447717 C22.6127243,10.5480091 21.339703,11.5429878 19.9395328,11.6042644 C19.3722136,11.629541 18.8439583,11.5141367 18.3325541,11.2899665 C18.1145115,11.1944772 17.8974902,11.0961793 17.6768945,11.0083495 C17.0751073,10.7698814 16.5057456,10.8722644 16.0249796,11.2613708 C14.9802136,12.1097963 13.7955328,12.6092006 12.4459158,12.6789027 C10.828469,12.7629027 9.39408598,12.2698814 8.16702215,11.2281793 C7.96685194,11.0581367 7.73349024,10.9833282 7.48838386,10.9394133 C7.14166045,10.8763495 6.8023413,10.879924 6.46557535,11.0349027 C5.96668173,11.2652006 5.46829875,11.5046899 4.90966045,11.5794984 C3.16480939,11.8128601 1.5583413,10.6869027 1.21774556,8.98928568 C1.03289449,8.06656227 0.960383856,7.13592397 1.02089449,6.19813674 C1.06557535,5.51030695 1.11153279,4.81251972 1.37451152,4.16732823 C1.86676683,2.95813674 2.78438386,2.25754099 4.11306471,2.09515802 C4.22846896,2.08086014 4.34438386,2.07524312 4.46004343,2.06528568" id="Fill-1" sketch:type="MSShapeGroup"></path>
        </g>
    </g>
</svg>