<?xml version="1.0" encoding="utf-8"?>
<!-- Generator: Adobe Illustrator 19.0.0, SVG Export Plug-In . SVG Version: 6.00 Build 0)  -->
<svg version="1.1" id="Layer_1" xmlns="http://www.w3.org/2000/svg" xmlns:xlink="http://www.w3.org/1999/xlink" x="0px" y="0px"
	 viewBox="0 0 150 60" style="enable-background:new 0 0 150 60;" xml:space="preserve">
<style type="text/css">
	.st0{fill:#C6C6C6;}
</style>
<g id="XMLID_13_">
	<polygon id="XMLID_11_" class="st0" points="64.9,23.4 68.5,23.4 68.5,13.8 72.7,0.3 69.1,0.3 66.7,9.6 64.3,0.3 60.8,0.3
		64.9,13.8 	"/>
	<path id="XMLID_23_" class="st0" d="M71.9,19.3c0,2.5,2.1,4.6,4.6,4.6h0c2.5,0,4.6-2.1,4.6-4.6v-8.9c0-2.5-2.1-4.6-4.6-4.6h0
		c-2.5,0-4.6,2.1-4.6,4.6V19.3z M75.1,10.2c0-0.8,0.6-1.4,1.4-1.4c0.8,0,1.4,0.6,1.4,1.4v9.3c0,0.8-0.6,1.4-1.4,1.4
		c-0.8,0-1.4-0.6-1.4-1.4V10.2z"/>
	<path id="XMLID_8_" class="st0" d="M86.2,23.6c1.3-0.3,3.1-2.2,3.1-2.2v1.9h3V6.5h-3.1v12.9c-2.7,2.8-2.7,0.1-2.7-0.8
		s0-12.1,0-12.1h-3.1c0,0-0.1,12.1-0.1,14.4S84.9,24,86.2,23.6z"/>
	<path id="XMLID_16_" class="st0" d="M95.2,24.9h-36c-4.5,0-8.1,3.7-8.1,8.1v18.6c0,4.5,3.7,8.1,8.1,8.1h36c4.5,0,8.1-3.7,8.1-8.1
		V33C103.3,28.6,99.7,24.9,95.2,24.9z M62.4,53.6h-3.7V33.7H55l0-3.7h11v3.7h-3.6V53.6z M75,53.4H72v-1.8c0,0-1.6,1.5-2.3,1.9
		S66,54.7,66,50.6s0-14.4,0-14.4h3.2c0,0,0,12,0,13c0,1,0.4,2.7,2.7,0.1v-13H75V53.4z M87.3,49.7c0,1.7-0.4,4-2.7,4
		s-3.3-1.5-3.3-1.5v1.2h-3.3V30.1h3.3v7.7c0,0,0.3-1.9,2.9-1.9c2.5,0,3.1,2.8,3.1,3.5S87.3,48,87.3,49.7z M99,45.4h-6.1
		c0,0-0.1,2.5-0.1,3.3c0,0.9,0.2,2.3,1.5,2.3s1.3-1.3,1.3-1.8c0-0.4,0-2.1,0-2.1H99c0,0,0,1.6,0,2.7S98.3,54,94.4,54
		c-3.9,0-4.7-3.5-4.7-4.5c0-1,0-7.7,0-9.5s1.7-4.3,4.7-4.3S99,38,99,39.8C99,41.6,99,45.4,99,45.4z"/>
	<path id="XMLID_2_" class="st0" d="M94.3,38.9c-1.1,0-1.4,1.2-1.4,2s0,1.8,0,1.8h2.9c0,0,0-1.3,0-1.9
		C95.8,40.1,95.5,38.9,94.3,38.9z"/>
	<path id="XMLID_1_" class="st0" d="M82.7,38.9c-0.8,0-1.4,0.9-1.4,0.9V50c0,0,0.5,1,1.6,1s1.1-1.2,1.1-3.4s0-6.4,0-7.2
		S83.5,38.9,82.7,38.9z"/>
</g>
</svg>
